<svg id="visual" viewBox="0 0 960 300" width="960" height="300" xmlns="http://www.w3.org/2000/svg" xmlns:xlink="http://www.w3.org/1999/xlink" version="1.1"><rect x="0" y="0" width="960" height="300" fill="#212121"></rect><path d="M0 136L22.8 134.5C45.7 133 91.3 130 137 132.7C182.7 135.3 228.3 143.7 274 143.5C319.7 143.3 365.3 134.7 411.2 136.8C457 139 503 152 548.8 151.5C594.7 151 640.3 137 686 134.7C731.7 132.3 777.3 141.7 823 141.7C868.7 141.7 914.3 132.3 937.2 127.7L960 123L960 301L937.2 301C914.3 301 868.7 301 823 301C777.3 301 731.7 301 686 301C640.3 301 594.7 301 548.8 301C503 301 457 301 411.2 301C365.3 301 319.7 301 274 301C228.3 301 182.7 301 137 301C91.3 301 45.7 301 22.8 301L0 301Z" fill="#46c3f5"></path><path d="M0 179L22.8 176.2C45.7 173.3 91.3 167.7 137 166.3C182.7 165 228.3 168 274 171.7C319.7 175.3 365.3 179.7 411.2 180.5C457 181.3 503 178.7 548.8 181.3C594.7 184 640.3 192 686 195C731.7 198 777.3 196 823 194.7C868.7 193.3 914.3 192.7 937.2 192.3L960 192L960 301L937.2 301C914.3 301 868.7 301 823 301C777.3 301 731.7 301 686 301C640.3 301 594.7 301 548.8 301C503 301 457 301 411.2 301C365.3 301 319.7 301 274 301C228.3 301 182.7 301 137 301C91.3 301 45.7 301 22.8 301L0 301Z" fill="#3ba0c8"></path><path d="M0 203L22.8 203.8C45.7 204.7 91.3 206.3 137 210.8C182.7 215.3 228.3 222.7 274 224.7C319.7 226.7 365.3 223.3 411.2 221.3C457 219.3 503 218.7 548.8 217.3C594.7 216 640.3 214 686 216.2C731.7 218.3 777.3 224.7 823 222.7C868.7 220.7 914.3 210.3 937.2 205.2L960 200L960 301L937.2 301C914.3 301 868.7 301 823 301C777.3 301 731.7 301 686 301C640.3 301 594.7 301 548.8 301C503 301 457 301 411.2 301C365.3 301 319.7 301 274 301C228.3 301 182.7 301 137 301C91.3 301 45.7 301 22.8 301L0 301Z" fill="#317e9c"></path><path d="M0 273L22.8 269.5C45.7 266 91.3 259 137 257C182.7 255 228.3 258 274 257C319.7 256 365.3 251 411.2 248.3C457 245.7 503 245.3 548.8 248.8C594.7 252.3 640.3 259.7 686 263.7C731.7 267.7 777.3 268.3 823 265.8C868.7 263.3 914.3 257.7 937.2 254.8L960 252L960 301L937.2 301C914.3 301 868.7 301 823 301C777.3 301 731.7 301 686 301C640.3 301 594.7 301 548.8 301C503 301 457 301 411.2 301C365.3 301 319.7 301 274 301C228.3 301 182.7 301 137 301C91.3 301 45.7 301 22.8 301L0 301Z" fill="#285e73"></path></svg>