<svg id="visual" viewBox="0 0 960 300" width="960" height="300" xmlns="http://www.w3.org/2000/svg" xmlns:xlink="http://www.w3.org/1999/xlink" version="1.1"><rect x="0" y="0" width="960" height="300" fill="#212121"></rect><path d="M0 183L13.3 175.5C26.7 168 53.3 153 80 147.3C106.7 141.7 133.3 145.3 160 152.2C186.7 159 213.3 169 240 176.2C266.7 183.3 293.3 187.7 320 186C346.7 184.3 373.3 176.7 400 168.3C426.7 160 453.3 151 480 152.7C506.7 154.3 533.3 166.7 560 174.7C586.7 182.7 613.3 186.3 640 178.7C666.7 171 693.3 152 720 142.8C746.7 133.7 773.3 134.3 800 137.3C826.7 140.3 853.3 145.7 880 153.3C906.7 161 933.3 171 946.7 176L960 181L960 0L946.7 0C933.3 0 906.7 0 880 0C853.3 0 826.7 0 800 0C773.3 0 746.7 0 720 0C693.3 0 666.7 0 640 0C613.3 0 586.7 0 560 0C533.3 0 506.7 0 480 0C453.3 0 426.7 0 400 0C373.3 0 346.7 0 320 0C293.3 0 266.7 0 240 0C213.3 0 186.7 0 160 0C133.3 0 106.7 0 80 0C53.3 0 26.7 0 13.3 0L0 0Z" fill="#50bbe6"></path><path d="M0 128L13.3 127.7C26.7 127.3 53.3 126.7 80 121.5C106.7 116.3 133.3 106.7 160 110.7C186.7 114.7 213.3 132.3 240 136C266.7 139.7 293.3 129.3 320 121.2C346.7 113 373.3 107 400 108C426.7 109 453.3 117 480 125C506.7 133 533.3 141 560 144C586.7 147 613.3 145 640 137.7C666.7 130.3 693.3 117.7 720 113.8C746.7 110 773.3 115 800 117.8C826.7 120.7 853.3 121.3 880 121.3C906.7 121.3 933.3 120.7 946.7 120.3L960 120L960 0L946.7 0C933.3 0 906.7 0 880 0C853.3 0 826.7 0 800 0C773.3 0 746.7 0 720 0C693.3 0 666.7 0 640 0C613.3 0 586.7 0 560 0C533.3 0 506.7 0 480 0C453.3 0 426.7 0 400 0C373.3 0 346.7 0 320 0C293.3 0 266.7 0 240 0C213.3 0 186.7 0 160 0C133.3 0 106.7 0 80 0C53.3 0 26.7 0 13.3 0L0 0Z" fill="#3f9fc5"></path><path d="M0 74L13.3 75.7C26.7 77.3 53.3 80.7 80 84.8C106.7 89 133.3 94 160 96.3C186.7 98.7 213.3 98.3 240 99.5C266.7 100.7 293.3 103.3 320 98.3C346.7 93.3 373.3 80.7 400 80.8C426.7 81 453.3 94 480 94.7C506.7 95.3 533.3 83.7 560 82.7C586.7 81.7 613.3 91.3 640 93.2C666.7 95 693.3 89 720 84C746.7 79 773.3 75 800 73.8C826.7 72.7 853.3 74.3 880 80.3C906.7 86.3 933.3 96.7 946.7 101.8L960 107L960 0L946.7 0C933.3 0 906.7 0 880 0C853.3 0 826.7 0 800 0C773.3 0 746.7 0 720 0C693.3 0 666.7 0 640 0C613.3 0 586.7 0 560 0C533.3 0 506.7 0 480 0C453.3 0 426.7 0 400 0C373.3 0 346.7 0 320 0C293.3 0 266.7 0 240 0C213.3 0 186.7 0 160 0C133.3 0 106.7 0 80 0C53.3 0 26.7 0 13.3 0L0 0Z" fill="#2f84a5"></path><path d="M0 33L13.3 38.3C26.7 43.7 53.3 54.3 80 56.7C106.7 59 133.3 53 160 47.8C186.7 42.7 213.3 38.3 240 40.8C266.7 43.3 293.3 52.7 320 52C346.7 51.3 373.3 40.7 400 38.3C426.7 36 453.3 42 480 45.7C506.7 49.3 533.3 50.7 560 50.5C586.7 50.3 613.3 48.7 640 47.8C666.7 47 693.3 47 720 48.3C746.7 49.7 773.3 52.3 800 49.7C826.7 47 853.3 39 880 37.8C906.7 36.7 933.3 42.3 946.7 45.2L960 48L960 0L946.7 0C933.3 0 906.7 0 880 0C853.3 0 826.7 0 800 0C773.3 0 746.7 0 720 0C693.3 0 666.7 0 640 0C613.3 0 586.7 0 560 0C533.3 0 506.7 0 480 0C453.3 0 426.7 0 400 0C373.3 0 346.7 0 320 0C293.3 0 266.7 0 240 0C213.3 0 186.7 0 160 0C133.3 0 106.7 0 80 0C53.3 0 26.7 0 13.3 0L0 0Z" fill="#1f6a87"></path></svg>