<svg id="visual" viewBox="0 0 960 300" width="960" height="300" xmlns="http://www.w3.org/2000/svg" xmlns:xlink="http://www.w3.org/1999/xlink" version="1.1"><rect x="0" y="0" width="960" height="300" fill="#212121"></rect><path d="M0 162L22.8 163.5C45.7 165 91.3 168 137 165.3C182.7 162.7 228.3 154.3 274 154.5C319.7 154.7 365.3 163.3 411.2 161.2C457 159 503 146 548.8 146.5C594.7 147 640.3 161 686 163.3C731.7 165.7 777.3 156.3 823 156.3C868.7 156.3 914.3 165.7 937.2 170.3L960 175L960 0L937.2 0C914.3 0 868.7 0 823 0C777.3 0 731.7 0 686 0C640.3 0 594.7 0 548.8 0C503 0 457 0 411.2 0C365.3 0 319.7 0 274 0C228.3 0 182.7 0 137 0C91.3 0 45.7 0 22.8 0L0 0Z" fill="#46c3f5"></path><path d="M0 119L22.8 121.8C45.7 124.7 91.3 130.3 137 131.7C182.7 133 228.3 130 274 126.3C319.7 122.7 365.3 118.3 411.2 117.5C457 116.7 503 119.3 548.8 116.7C594.7 114 640.3 106 686 103C731.7 100 777.3 102 823 103.3C868.7 104.7 914.3 105.3 937.2 105.7L960 106L960 0L937.2 0C914.3 0 868.7 0 823 0C777.3 0 731.7 0 686 0C640.3 0 594.7 0 548.8 0C503 0 457 0 411.2 0C365.3 0 319.7 0 274 0C228.3 0 182.7 0 137 0C91.3 0 45.7 0 22.8 0L0 0Z" fill="#3ba0c8"></path><path d="M0 95L22.8 94.2C45.7 93.3 91.3 91.7 137 87.2C182.7 82.7 228.3 75.3 274 73.3C319.7 71.3 365.3 74.7 411.2 76.7C457 78.7 503 79.3 548.8 80.7C594.7 82 640.3 84 686 81.8C731.7 79.7 777.3 73.3 823 75.3C868.7 77.3 914.3 87.7 937.2 92.8L960 98L960 0L937.2 0C914.3 0 868.7 0 823 0C777.3 0 731.7 0 686 0C640.3 0 594.7 0 548.8 0C503 0 457 0 411.2 0C365.3 0 319.7 0 274 0C228.3 0 182.7 0 137 0C91.3 0 45.7 0 22.8 0L0 0Z" fill="#317e9c"></path><path d="M0 25L22.8 28.5C45.7 32 91.3 39 137 41C182.7 43 228.3 40 274 41C319.7 42 365.3 47 411.2 49.7C457 52.3 503 52.7 548.8 49.2C594.7 45.7 640.3 38.3 686 34.3C731.7 30.3 777.3 29.7 823 32.2C868.7 34.7 914.3 40.3 937.2 43.2L960 46L960 0L937.2 0C914.3 0 868.7 0 823 0C777.3 0 731.7 0 686 0C640.3 0 594.7 0 548.8 0C503 0 457 0 411.2 0C365.3 0 319.7 0 274 0C228.3 0 182.7 0 137 0C91.3 0 45.7 0 22.8 0L0 0Z" fill="#285e73"></path></svg>