<svg id="visual" viewBox="0 0 960 300" width="960" height="300" xmlns="http://www.w3.org/2000/svg" xmlns:xlink="http://www.w3.org/1999/xlink" version="1.1"><rect x="0" y="0" width="960" height="300" fill="#285e73"></rect><path d="M0 145L22.8 146C45.7 147 91.3 149 137 151.2C182.7 153.3 228.3 155.7 274 153C319.7 150.3 365.3 142.7 411.2 137.3C457 132 503 129 548.8 131.2C594.7 133.3 640.3 140.7 686 147.2C731.7 153.7 777.3 159.3 823 163.7C868.7 168 914.3 171 937.2 172.5L960 174L960 301L937.2 301C914.3 301 868.7 301 823 301C777.3 301 731.7 301 686 301C640.3 301 594.7 301 548.8 301C503 301 457 301 411.2 301C365.3 301 319.7 301 274 301C228.3 301 182.7 301 137 301C91.3 301 45.7 301 22.8 301L0 301Z" fill="#285e73"></path><path d="M0 194L22.8 192.5C45.7 191 91.3 188 137 182.2C182.7 176.3 228.3 167.7 274 163.8C319.7 160 365.3 161 411.2 163.2C457 165.3 503 168.7 548.8 176.5C594.7 184.3 640.3 196.7 686 198.5C731.7 200.3 777.3 191.7 823 184.5C868.7 177.3 914.3 171.7 937.2 168.8L960 166L960 301L937.2 301C914.3 301 868.7 301 823 301C777.3 301 731.7 301 686 301C640.3 301 594.7 301 548.8 301C503 301 457 301 411.2 301C365.3 301 319.7 301 274 301C228.3 301 182.7 301 137 301C91.3 301 45.7 301 22.8 301L0 301Z" fill="#285e73"></path><path d="M0 235L22.8 229.7C45.7 224.3 91.3 213.7 137 211C182.7 208.3 228.3 213.7 274 215.5C319.7 217.3 365.3 215.7 411.2 213.7C457 211.7 503 209.3 548.8 212C594.7 214.7 640.3 222.3 686 224.3C731.7 226.3 777.3 222.7 823 218C868.7 213.3 914.3 207.7 937.2 204.8L960 202L960 301L937.2 301C914.3 301 868.7 301 823 301C777.3 301 731.7 301 686 301C640.3 301 594.7 301 548.8 301C503 301 457 301 411.2 301C365.3 301 319.7 301 274 301C228.3 301 182.7 301 137 301C91.3 301 45.7 301 22.8 301L0 301Z" fill="#285e73"></path><path d="M0 269L22.8 269C45.7 269 91.3 269 137 263.5C182.7 258 228.3 247 274 241.5C319.7 236 365.3 236 411.2 240.5C457 245 503 254 548.8 257.2C594.7 260.3 640.3 257.7 686 254.2C731.7 250.7 777.3 246.3 823 246.3C868.7 246.3 914.3 250.7 937.2 252.8L960 255L960 301L937.2 301C914.3 301 868.7 301 823 301C777.3 301 731.7 301 686 301C640.3 301 594.7 301 548.8 301C503 301 457 301 411.2 301C365.3 301 319.7 301 274 301C228.3 301 182.7 301 137 301C91.3 301 45.7 301 22.8 301L0 301Z" fill="#285e73"></path></svg>